<!DOCTYPE svg PUBLIC "-//W3C//DTD SVG 1.1//EN" "http://www.w3.org/Graphics/SVG/1.1/DTD/svg11.dtd">
<!-- Uploaded to: SVG Repo, www.svgrepo.com, Transformed by: SVG Repo Mixer Tools -->
<svg width="256px" height="256px" viewBox="-2.4 -2.4 28.80 28.80" fill="none" xmlns="http://www.w3.org/2000/svg" stroke="#0000" transform="matrix(1, 0, 0, 1, 0, 0)rotate(0)">
<g id="SVGRepo_bgCarrier" stroke-width="0">
<rect x="-2.4" y="-2.4" width="28.80" height="28.80" rx="14.4" fill="#f7f7f7" strokewidth="0"/>
</g>
<g id="SVGRepo_tracerCarrier" stroke-linecap="round" stroke-linejoin="round"/>
<g id="SVGRepo_iconCarrier"> <path fill-rule="evenodd" clip-rule="evenodd" d="M16.2803 11.0303C15.9874 11.3232 15.5126 11.3232 15.2197 11.0303L12.75 8.56066L12.75 17.25C12.75 17.6642 12.4142 18 12 18C11.5858 18 11.25 17.6642 11.25 17.25L11.25 8.56066L8.78033 11.0303C8.48744 11.3232 8.01256 11.3232 7.71967 11.0303C7.42678 10.7374 7.42678 10.2626 7.71967 9.96967L11.4697 6.21967C11.7626 5.92678 12.2374 5.92678 12.5303 6.21967L16.2803 9.96967C16.5732 10.2626 16.5732 10.7374 16.2803 11.0303Z" fill="#000000"/> </g>
</svg>